<?xml version="1.0" encoding="utf-8"?>
<!-- Generator: Adobe Illustrator 16.0.0, SVG Export Plug-In . SVG Version: 6.00 Build 0)  -->
<!DOCTYPE svg PUBLIC "-//W3C//DTD SVG 1.1//EN" "http://www.w3.org/Graphics/SVG/1.1/DTD/svg11.dtd">
<svg version="1.1" id="레이어_1" xmlns="http://www.w3.org/2000/svg" xmlns:xlink="http://www.w3.org/1999/xlink" x="0px"
	 y="0px" width="943.659px" height="141.155px" viewBox="0 0 943.659 141.155" enable-background="new 0 0 943.659 141.155"
	 xml:space="preserve">
<path fill="none" stroke="#FBB108" stroke-width="4.5905" stroke-linecap="round" stroke-linejoin="round" stroke-miterlimit="10" d="
	M524.519,19.575c-14.188-12.187-35.489-3.801-47.883,10.097c-12.396-13.897-33.695-22.284-47.883-10.097
	c-14.355,12.324-16,33.958-3.671,48.316l51.556,60.039l51.553-60.039C540.52,53.533,538.874,31.898,524.519,19.575z"/>
<g>
	
		<circle fill="none" stroke="#FBB108" stroke-width="4.5905" stroke-linecap="round" stroke-linejoin="round" stroke-miterlimit="10" cx="878.966" cy="70.808" r="62.397"/>
	<g>
		
			<line fill="none" stroke="#FBB108" stroke-width="4.5905" stroke-linecap="round" stroke-linejoin="round" stroke-miterlimit="10" x1="878.966" y1="27.469" x2="878.966" y2="70.808"/>
		
			<line fill="none" stroke="#FBB108" stroke-width="4.5905" stroke-linecap="round" stroke-linejoin="round" stroke-miterlimit="10" x1="899.829" y1="56.2" x2="878.966" y2="70.808"/>
	</g>
</g>
<g>
	<g>
		
			<rect x="83.792" y="2.757" fill="none" stroke="#FBB108" stroke-width="4.5905" stroke-linecap="round" stroke-linejoin="round" stroke-miterlimit="10" width="28.552" height="136.103"/>
		<g>
			
				<line fill="none" stroke="#FBB108" stroke-width="4.5905" stroke-linecap="round" stroke-linejoin="round" stroke-miterlimit="10" x1="83.792" y1="27.299" x2="98.068" y2="27.299"/>
			
				<line fill="none" stroke="#FBB108" stroke-width="4.5905" stroke-linecap="round" stroke-linejoin="round" stroke-miterlimit="10" x1="83.792" y1="44.703" x2="98.068" y2="44.703"/>
			
				<line fill="none" stroke="#FBB108" stroke-width="4.5905" stroke-linecap="round" stroke-linejoin="round" stroke-miterlimit="10" x1="83.792" y1="62.106" x2="98.068" y2="62.106"/>
			
				<line fill="none" stroke="#FBB108" stroke-width="4.5905" stroke-linecap="round" stroke-linejoin="round" stroke-miterlimit="10" x1="83.792" y1="79.51" x2="98.068" y2="79.51"/>
			
				<line fill="none" stroke="#FBB108" stroke-width="4.5905" stroke-linecap="round" stroke-linejoin="round" stroke-miterlimit="10" x1="83.792" y1="96.914" x2="98.068" y2="96.914"/>
			
				<line fill="none" stroke="#FBB108" stroke-width="4.5905" stroke-linecap="round" stroke-linejoin="round" stroke-miterlimit="10" x1="83.792" y1="114.317" x2="98.068" y2="114.317"/>
		</g>
	</g>
	<g>
		<g>
			
				<rect x="2.295" y="32.078" fill="none" stroke="#FBB108" stroke-width="4.5905" stroke-linecap="round" stroke-linejoin="round" stroke-miterlimit="10" width="26.247" height="77.769"/>
			
				<rect x="2.295" y="109.846" fill="none" stroke="#FBB108" stroke-width="4.5905" stroke-linecap="round" stroke-linejoin="round" stroke-miterlimit="10" width="26.247" height="28.552"/>
			
				<polygon fill="none" stroke="#FBB108" stroke-width="4.5905" stroke-linecap="round" stroke-linejoin="round" stroke-miterlimit="10" points="
				2.295,32.078 15.419,2.295 28.542,32.078 			"/>
		</g>
	</g>
</g>
<line fill="none" stroke="#FFFFFF" stroke-width="4.5905" stroke-linecap="round" stroke-linejoin="round" stroke-miterlimit="10" x1="229.404" y1="85.024" x2="279.32" y2="85.024"/>
<line fill="none" stroke="#FFFFFF" stroke-width="4.5905" stroke-linecap="round" stroke-linejoin="round" stroke-miterlimit="10" x1="254.362" y1="60.066" x2="254.362" y2="109.982"/>
<line fill="none" stroke="#FFFFFF" stroke-width="4.5905" stroke-linecap="round" stroke-linejoin="round" stroke-miterlimit="10" x1="671.222" y1="85.024" x2="721.138" y2="85.024"/>
<line fill="none" stroke="#FFFFFF" stroke-width="4.5905" stroke-linecap="round" stroke-linejoin="round" stroke-miterlimit="10" x1="696.18" y1="60.066" x2="696.18" y2="109.982"/>
</svg>
